<svg width="79" height="40" viewBox="0 0 79 40" fill="none" xmlns="http://www.w3.org/2000/svg">
<g id="layer1">
<path id="path4147" fill-rule="evenodd" clip-rule="evenodd" d="M56.9263 0.697416C56.6385 0.644034 56.338 0.666394 56.0723 0.840821C55.5195 1.20377 55.4136 1.79499 55.2915 2.23631C55.0805 2.99858 55.1572 3.76011 55.2183 4.43857C55.3407 5.79745 55.8104 7.03181 56.0185 8.23716C56.1429 8.95795 56.2527 9.68195 56.3505 10.4077C55.9676 11.3103 55.5719 12.2071 55.1828 13.0804C54.2867 15.0919 53.2571 17.0567 52.2706 19.0556C51.2222 21.1803 50.2623 23.3298 49.121 25.361C48.3176 26.7907 47.8497 27.7163 47.0187 28.7571C46.765 29.0748 46.3308 29.5285 46.1491 29.6132C45.9675 29.698 45.8434 29.7083 45.7626 29.6802C45.7014 29.659 45.6334 29.5933 45.5497 29.4107C45.4659 29.228 45.3957 28.9694 45.2983 28.7109C44.8971 27.6462 44.7357 26.4647 44.6732 25.2838C44.6419 24.6913 44.6982 24.0836 44.7566 23.4719C45.2772 22.0762 45.8158 20.6851 46.3723 19.2982C47.3588 16.8398 48.4948 14.425 49.5084 11.9414C50.045 10.6265 50.7432 9.3056 51.1094 7.82762C51.1858 7.51937 51.3239 7.14587 51.4101 6.73886C51.4963 6.33185 51.5323 5.86372 51.3214 5.41335C51.0742 4.88549 50.5601 4.57513 50.0054 4.53685C49.1753 4.47956 48.5237 5.00488 48.049 5.42194C47.317 6.06513 46.9374 6.93838 46.5724 7.68603C46.0161 8.82571 45.6473 10.034 45.336 11.227C44.8846 12.9572 44.6236 14.7218 44.4079 16.4711C44.23 17.9141 44.2087 19.347 44.1062 20.7473C44.0455 21.5773 43.9342 22.4308 43.8488 23.2983C43.5319 24.1516 43.2133 25.0044 42.9227 25.8688C42.8266 26.1547 42.7579 26.4408 42.6678 26.7278C42.4587 26.1436 42.1977 25.6068 42.0294 25.1202C41.8405 24.574 41.6263 24.0852 41.5479 23.6185C41.4705 23.1578 41.5086 21.9301 41.5086 21.9301C41.5299 21.4411 40.8678 21.268 40.6457 21.7045C40.6457 21.7045 39.5201 23.915 38.8212 25.0232C38.675 25.2551 38.1764 25.8931 37.926 26.2037C38.002 25.776 38.4121 24.4944 38.4597 24.1631C38.6039 23.158 38.9593 22.1522 38.6776 21.76C38.5059 21.5211 38.0415 21.2749 37.7956 21.697C37.7956 21.697 36.8345 23.3455 36.3647 24.1924C35.9852 24.8768 35.7239 25.3823 35.2624 26.2488C35.6154 24.2807 36.2189 22.323 36.5701 20.2733C36.7104 19.4543 37.2327 18.4225 36.9003 17.3153C36.8479 17.1405 36.7685 16.9442 36.6306 16.7565C36.4928 16.5689 36.2642 16.3609 35.9347 16.3429C35.8867 16.3403 35.846 16.3558 35.7998 16.3581C35.9714 15.6913 36.1543 15.0273 36.2904 14.3518C36.4564 13.5278 36.8464 12.5532 36.6174 11.5053C36.4799 10.8762 36.156 10.2911 35.4804 9.90386C34.8763 9.55758 34.2231 9.71442 33.7514 9.82026C32.7171 10.0523 31.8609 10.4821 31.069 11.0242C29.6977 11.9629 28.4272 13.0865 27.3629 14.3735C26.7272 15.1422 26.2026 15.9814 25.7191 16.8399C25.4589 16.5016 25.1686 16.1854 24.8028 15.9371C23.6137 15.1298 22.1258 15.2173 20.9115 15.1899C19.4664 15.1573 18.0278 15.4011 16.6599 15.771C14.4423 16.3705 12.3536 17.3438 10.3478 18.3769C8.02921 19.5713 6.07776 20.8588 3.98603 22.4043C2.5036 23.4996 0.451487 25.5225 0.274489 25.7327C-0.244079 26.3483 0.115596 26.9654 0.690179 26.4435C0.893628 26.2587 2.89955 24.2666 4.26924 23.2546C6.32654 21.7346 8.49732 20.3543 10.7666 19.1854C12.7502 18.1636 14.7824 17.2213 16.8985 16.6492C18.2078 16.2952 19.5628 16.0697 20.8909 16.0997C22.1466 16.1281 23.4358 16.1101 24.289 16.6894C24.6665 16.9457 24.9718 17.3249 25.2371 17.752C25.083 18.0516 24.91 18.3457 24.7647 18.6461C24.0678 20.087 23.5123 21.6005 23.0968 23.1426C22.5033 25.3451 22.1514 27.6068 21.9346 29.8618C21.7868 31.3985 21.6008 33.0768 21.8516 34.7806C21.9005 35.1132 22.0495 35.5622 22.2509 35.9809C22.3517 36.1903 22.477 36.3952 22.6623 36.5666C22.8475 36.738 23.1101 36.8696 23.4003 36.8805C23.6842 36.8911 23.9513 36.7752 24.137 36.6178C24.3227 36.4604 24.4471 36.271 24.5513 36.0801C24.7596 35.6984 24.9249 35.2972 25.0163 35.0378C25.6777 33.1601 26.1857 31.4296 26.5488 29.6465C26.9451 27.7011 27.2582 25.7101 27.3015 23.6986C27.332 22.2797 27.4084 20.7425 26.9232 19.2823C26.7564 18.7806 26.531 18.2525 26.2722 17.7442C26.8022 16.7561 27.3697 15.7958 28.0671 14.9524C29.0703 13.7393 30.2778 12.6694 31.5857 11.7741C32.362 11.2427 33.1305 10.8922 33.9519 10.7079C34.3919 10.6092 34.8197 10.5747 35.0257 10.6928C35.3372 10.8713 35.6206 11.2191 35.7255 11.6993C35.878 12.3969 35.5828 13.2451 35.3959 14.1726C35.2102 15.0942 34.9772 16.0083 34.7247 16.9175C34.6531 16.9909 34.5608 17.0495 34.4993 17.1256C34.1703 17.5326 33.9128 17.9882 33.6817 18.2716C32.7808 19.377 32.1119 20.6261 31.4817 21.8452C30.5994 23.5518 29.7974 25.3236 29.2111 27.173C28.9238 28.0791 28.6478 28.7829 28.5636 29.5731C28.4954 30.2134 29.055 30.3497 29.4472 30.1326C29.8395 29.9154 30.0051 29.6218 30.3112 29.2242C30.9664 28.3731 31.5076 27.4492 31.9923 26.5163C33.0001 24.5765 33.8344 22.5513 34.5572 20.5007C34.9222 19.4651 35.2564 18.4151 35.5561 17.3546C35.6578 17.2855 35.7559 17.2528 35.8584 17.2527C35.8535 17.2475 35.8595 17.2503 35.8844 17.2516C35.8756 17.2511 35.8671 17.2527 35.8584 17.2527C35.8624 17.2569 35.8727 17.2652 35.8941 17.2943C35.9416 17.3589 35.997 17.4792 36.0262 17.5763C36.2253 18.2395 35.8423 19.1174 35.6704 20.1201C35.3183 22.1752 34.6635 24.2162 34.3056 26.3584C34.1763 27.1325 33.9835 28.1523 33.9502 28.5167C33.9048 29.0127 34.7484 29.3445 34.9804 28.9034C35.1508 28.5794 36.395 26.0184 37.1637 24.6326C37.2705 24.44 37.3524 24.3052 37.4958 24.0537C37.4582 24.3807 37.4091 24.6477 37.3477 24.9413C37.1991 25.6526 36.8249 26.5851 36.8153 27.0552C36.8019 27.7117 37.5148 28.2731 38.0768 27.6933C38.4045 27.3552 39.0253 26.4086 39.5936 25.5075C40.0154 24.8387 40.2497 24.3442 40.6385 23.6082C40.6449 23.6592 40.6401 23.7216 40.648 23.7691C40.7521 24.3886 40.9959 24.922 41.1671 25.417C41.4592 26.2613 41.9054 26.9495 42.0029 27.6197C42.0555 27.981 42.0723 28.3489 42.0775 28.7189C41.7644 29.8164 41.4365 30.9194 41.1044 31.9986C40.6922 33.3379 40.1212 34.6769 39.7894 36.1257C39.556 37.1451 39.2638 38.0253 39.3698 39.0624C39.3998 39.3557 39.906 39.7257 40.2072 39.3544C40.4144 39.099 41.0294 38.1081 41.3571 37.3036C41.9356 35.8834 42.2887 34.3864 42.5369 32.9007C42.7565 31.5865 43.0064 30.212 42.9988 28.8205C43.2534 27.9317 43.4964 27.0269 43.7884 26.1581C43.8032 26.1142 43.8207 26.0711 43.8355 26.0272C43.9244 27.0374 44.0778 28.0581 44.4442 29.0306C44.5164 29.2222 44.5893 29.504 44.7199 29.7887C44.8504 30.0735 45.0682 30.4023 45.4623 30.5393C45.8516 30.6746 46.2332 30.5785 46.536 30.4372C46.8389 30.296 47.2892 29.8294 47.5974 29.4608C48.5233 28.3533 49.1788 27.1197 49.9171 25.8059C51.0858 23.7259 52.0515 21.5609 53.0896 19.4573C54.0694 17.4718 55.0991 15.3964 55.9863 13.3136C56.1777 12.864 56.3611 12.4155 56.54 11.9656C56.5681 12.2205 56.5968 12.4755 56.6222 12.7307C56.7081 13.5951 56.7532 14.4335 56.8207 15.3398C56.8532 15.7762 56.8763 16.2526 56.9226 16.6797C55.9331 17.827 54.9221 18.9521 53.9607 20.1675C53.3257 20.9703 52.9096 21.5351 52.1365 22.6462C51.9322 22.9398 51.904 23.2778 51.9405 23.573C51.9769 23.8682 52.1517 24.2101 52.3644 24.4594C52.6392 24.7816 52.9738 25.0403 53.4103 25.1823C54.0654 25.3953 54.8147 25.4995 55.4906 25.274C56.1491 25.0544 56.5973 24.5775 56.9821 24.0564C57.4534 23.4185 57.5378 22.69 57.6773 22.0315C57.8815 21.0678 57.9408 20.1127 57.9306 19.194C57.9224 18.4463 57.9485 17.6951 57.8703 16.9748C58.194 16.594 58.5284 16.2276 58.8382 15.8309C58.9277 15.7162 59.0627 15.5168 59.1577 15.3929C59.0203 15.7246 58.8566 16.0418 58.7496 16.3891C58.5018 17.1928 58.3397 18.0491 58.3507 18.9153C58.3554 19.284 58.2876 19.8438 58.6545 20.338C58.8989 20.6671 59.1159 20.998 59.6453 20.9272C60.0751 20.8696 60.4476 20.549 60.6543 20.3039C60.8609 20.0588 61.1104 19.8314 61.2452 19.6959C61.6781 19.2608 62.3377 18.4658 62.7551 17.9789C62.7346 18.1579 62.6237 18.593 62.6532 18.9006C62.6724 19.0999 62.6939 19.2857 62.8319 19.4743C62.9698 19.6628 63.1772 19.852 63.4756 19.9079C63.8599 19.9801 64.1846 19.8065 64.4083 19.6418C64.632 19.477 64.8064 19.2974 64.9333 19.1992C65.6138 18.672 66.1607 18.0291 66.6716 17.4077C66.9941 17.0154 67.2435 16.6092 67.4752 16.2523C67.6071 16.4184 67.7512 16.6101 67.7853 16.6863C67.9474 17.0483 67.9563 17.5534 68.039 18.1222C68.0939 18.4996 68.11 18.8633 68.1573 19.2354C67.9669 19.4715 67.7705 19.7082 67.5892 19.9396C67.0292 20.6542 66.5131 21.4121 66.0704 22.2129C65.5003 23.2442 64.9213 24.3286 64.5922 25.5235C64.3134 26.5357 63.8839 27.737 64.2202 28.9464C64.3938 29.571 64.7901 30.2204 65.4646 30.5206C65.9908 30.7548 66.5554 30.6543 67.0008 30.4247C67.655 30.0875 68.0044 29.4587 68.2655 28.9374C68.6872 28.0954 68.7706 27.1872 68.8918 26.3813C69.1691 24.5376 69.2794 22.6649 69.2391 20.804C69.2296 20.3633 69.1516 19.9468 69.1036 19.5168C69.4589 19.0967 70.0032 18.6366 70.4133 18.3174C71.4462 17.5136 72.4625 16.9443 73.7065 16.5209C74.5977 16.2175 75.4971 15.9348 76.2648 16.0762C76.4699 16.114 76.6984 16.1748 76.8596 16.2534C77.4488 16.5186 76.818 17.2352 76.6342 17.446C76.2814 17.8306 75.885 18.1007 75.43 18.4483C74.7639 18.9571 74.1706 19.3654 73.465 19.6832C72.9337 19.9225 72.6507 20.0929 71.787 20.1752C71.1414 20.2366 71.0718 20.7985 71.7888 20.8299C72.6609 20.8681 72.8942 20.8251 73.8469 20.4673C74.7407 20.1315 75.4782 19.646 76.0547 19.2003C76.5057 18.8557 77.0374 18.4992 77.4064 18.0321C77.6074 17.7776 77.7586 17.4783 77.8543 17.1686C77.952 16.8526 78.104 16.5841 77.9735 16.1839C77.8499 15.805 77.5464 15.5754 77.2605 15.4359C76.9746 15.2965 76.6785 15.2273 76.431 15.1817C75.3456 14.9817 74.3038 15.3562 73.4115 15.66C72.0733 16.1155 70.9703 16.73 69.8522 17.6001C69.5923 17.8023 69.2038 18.1074 68.9789 18.3368C68.9626 18.2241 68.9587 18.1037 68.9424 17.9917C68.8733 17.5165 68.8878 16.9168 68.6186 16.3155C68.4897 16.0276 68.2845 15.7819 68.1034 15.5689C67.9223 15.356 67.763 15.1929 67.763 15.1929C67.5574 14.9827 67.2089 15.0188 67.0511 15.2667C67.0511 15.2667 66.3339 16.3836 65.966 16.8311C65.4632 17.4427 64.9556 18.0296 64.3734 18.4805C64.1691 18.6388 64.0031 18.8085 63.8661 18.9094C63.729 19.0104 63.6721 19.019 63.6443 19.0138C63.654 19.0156 63.6191 19.0058 63.5692 18.9377C63.5194 18.8696 63.4701 18.7579 63.4487 18.6703C63.3917 18.4373 63.5809 18.034 63.7345 17.4934C63.9647 16.6829 64.655 14.978 64.655 14.978C64.8724 14.4441 64.1005 14.0844 63.8292 14.5933C63.8292 14.5933 62.8161 16.4799 62.2405 17.2546C61.7715 17.8859 61.1884 18.4608 60.5973 19.0548C60.3599 19.2934 60.1734 19.4739 60.0216 19.654C59.7637 19.9247 59.6183 19.9482 59.388 19.7966C59.2866 19.66 59.2685 19.3196 59.2632 18.9035C59.2537 18.1589 59.3949 17.3924 59.6219 16.6563C60.0164 15.3765 60.6122 14.1471 61.2936 12.9125C61.6752 12.2211 62.2536 11.3076 62.8451 10.4073C63.4206 10.156 64.0153 9.92198 64.6109 9.67363C65.683 9.22668 66.6915 8.84892 67.7963 8.48786C68.9574 8.10843 70.1249 7.72913 71.2957 7.37016C71.7753 7.22312 71.7381 6.67162 71.2387 6.67378C71.1825 6.66833 71.1257 6.6733 71.0714 6.68851C71.0714 6.68851 68.7962 7.25003 67.5671 7.65172C66.4399 8.02007 65.3539 8.37757 64.259 8.83407C64.0951 8.9024 63.9274 8.97007 63.7611 9.03775C64.5189 7.92233 65.1454 7.03394 65.1507 7.02625L65.1567 7.01744V7.01694C65.477 6.52063 64.7507 6.02587 64.4034 6.50374L64.4028 6.50417C64.4028 6.50417 62.9677 8.29515 62.2713 9.33738C62.1809 9.47273 62.0889 9.62562 61.9931 9.79065C61.5344 10.0055 61.0811 10.2422 60.6434 10.518C60.1649 10.8194 59.7047 11.1798 59.3137 11.6156C58.8788 12.1004 58.4699 12.8423 58.4699 12.8423C58.1674 13.3751 59.0228 13.77 59.3155 13.2318C59.3155 13.2318 59.7409 12.5046 59.9939 12.2226C60.3094 11.8709 60.6965 11.5636 61.1128 11.2995C60.5119 12.2735 59.6289 13.55 58.1178 15.272C57.9926 15.4147 57.8631 15.5654 57.7431 15.7131C57.7313 15.5844 57.7133 15.4519 57.7038 15.3239C57.6387 14.4502 57.5509 13.5234 57.4603 12.6116C57.384 11.8438 57.2856 11.0795 57.1733 10.317C57.4956 9.45505 57.8109 8.58371 58.1346 7.68729C58.4805 6.72894 58.7344 5.94631 58.9506 4.88763C59.0687 4.30936 59.0383 3.72204 59.0242 3.31626C59.0107 2.93147 58.6451 2.92435 58.6171 3.31117C58.5785 3.84585 58.5242 4.10919 58.4438 4.50433C58.2487 5.45929 57.9271 6.34568 57.575 7.32086C57.3812 7.85762 57.172 8.39843 56.9556 8.93977C56.9074 8.64847 56.859 8.3571 56.8087 8.06572C56.5807 6.74513 56.2348 5.55126 56.1273 4.35732C56.0663 3.68042 56.0192 3.02799 56.1712 2.47848C56.2843 2.07002 56.419 1.78028 56.6046 1.65845C56.7456 1.56586 57.0578 1.50759 57.2146 1.54751C57.4144 1.59842 57.5545 1.69128 57.7085 1.8825C57.8993 2.11949 57.9923 2.23514 58.1321 2.41308C58.3644 2.70855 58.685 2.56508 58.5619 2.25879C58.4512 1.98326 58.4035 1.80196 58.2165 1.54365C57.9356 1.15551 57.6918 0.983026 57.4198 0.85859C57.2667 0.788523 57.0988 0.729444 56.9262 0.697415L56.9263 0.697416ZM49.9423 5.44459C50.132 5.45769 50.4256 5.65225 50.4941 5.79848C50.5839 5.99026 50.5846 6.23405 50.5175 6.55073C50.4504 6.86742 50.3173 7.22936 50.2232 7.60913C49.8922 8.94489 49.222 10.2291 48.663 11.5988C47.6615 14.053 46.6737 16.2326 45.6741 18.7238C45.518 19.1128 45.0479 20.3472 44.8931 20.7372C44.964 19.5384 45.1711 17.7388 45.3138 16.5822C45.5276 14.8477 45.7846 13.1232 46.2195 11.4564C46.5242 10.2884 46.8785 9.13823 47.3929 8.08438C47.7661 7.31998 48.1194 6.57346 48.6527 6.10483C49.0776 5.7315 49.5764 5.41934 49.9423 5.44459ZM57.0306 17.9677C57.066 18.374 57.1104 18.7821 57.1148 19.1819C57.1249 20.0999 57.13 20.9996 56.9534 21.833C56.8169 22.4777 56.6584 23.0966 56.3375 23.5311C56.0446 23.9275 55.5477 24.3492 55.1225 24.491C54.6682 24.6425 54.2189 24.6201 53.7497 24.4924C53.4392 24.4078 53.2306 24.3175 53.0226 24.1489C52.8751 24.0293 52.7046 23.8833 52.6784 23.6956C52.6522 23.5074 52.8546 23.2102 52.8865 23.1645C53.6547 22.0603 54.0507 21.5228 54.6772 20.7309C55.4201 19.7917 56.2245 18.8842 57.0306 17.9677ZM68.2941 20.5207C68.299 20.6204 68.3243 20.7246 68.3264 20.824C68.3657 22.6358 68.2584 24.4568 67.9893 26.2461C67.8637 27.0814 67.7707 27.8883 67.4488 28.5309C67.2114 29.005 66.9185 29.4425 66.5815 29.6162C66.3496 29.7357 66.0069 29.7651 65.8367 29.6894C65.5241 29.5502 65.2149 29.1173 65.0997 28.7032C64.8639 27.8552 65.184 26.8108 65.4723 25.7642C65.7659 24.6982 66.3051 23.6741 66.87 22.6522C67.2815 21.9078 67.7656 21.197 68.2941 20.5207ZM33.9024 19.5547C33.83 19.7683 33.7711 19.986 33.6961 20.1988C32.9838 22.2196 32.1652 24.2058 31.1822 26.098C30.8059 26.8223 30.2882 27.7698 29.8291 28.4284C29.8993 28.1083 29.9726 27.7668 30.0812 27.4471C30.6854 25.6682 31.4251 23.9401 32.2926 22.2621C32.7825 21.3144 33.3105 20.4038 33.9024 19.5547ZM25.7224 18.7849C25.8319 19.0497 25.9673 19.2986 26.0569 19.5682C26.4714 20.8154 26.4197 22.2464 26.3889 23.679C26.3473 25.6091 26.0453 27.5471 25.6547 29.4653C25.2877 31.267 24.826 32.9024 24.1979 34.6357C24.0663 34.9988 23.8977 35.3744 23.75 35.6452C23.6761 35.7806 23.5995 35.879 23.5458 35.9245C23.4921 35.97 23.4816 35.9725 23.4343 35.9707C23.3748 35.9685 23.3452 35.9569 23.2832 35.8996C23.2212 35.8422 23.1437 35.7325 23.0739 35.5874C22.9343 35.2971 22.785 34.8935 22.7303 34.5358C22.5176 33.1425 22.6876 31.5669 22.8432 29.9486C23.0566 27.7291 23.4019 25.5169 23.9782 23.3784C24.3796 21.8886 24.9159 20.4284 25.5867 19.0416C25.629 18.9542 25.6795 18.872 25.7224 18.7849Z" fill="#535353"/>
</g>
</svg>
